<svg fill="#475569" xmlns="http://www.w3.org/2000/svg" viewBox="0 0 500 500">
	<g>
		<path d="M352.7,139.9c12.7,10.3,22,21,29.8,32.9c18.9,28.4,28.9,59.9,26.9,93.9c-3.9,65.9-35.9,113.9-96.2,141.1
		c-46.5,21-93.4,18.2-138.1-5.4c-39.6-20.9-66-53.8-78.4-97.2c-22.3-77.6,18.3-161,93-191c25.3-10.2,51.6-14.3,78.9-10.7
		c4.1,0.5,5.3,2.1,5.3,6c-0.1,50,0,99.9-0.3,149.9c-0.1,10.8-2.4,21.4-11.6,28.6c-11.5,9-29.2,8.9-42.5-0.6
		c-6.1-4.3-11.5-9.6-16.8-14.9c-3.1-3.2-5.3-3.2-8.4-0.2c-14.3,13.6-28.7,27.1-43.2,40.6c-2.7,2.5-3,4.9-0.7,7.7
		c18.1,22.3,40.8,37.2,69.5,41.4c12.4,1.8,25.2,2.7,37.7,2.1c31.1-1.5,57.4-13.4,76.4-39c9.5-12.8,14.9-27.4,16.6-43.1
		c1.5-13.7,2-27.6,2.2-41.3c0.3-30,0.1-60,0.1-90.1C352.7,147.5,352.7,144.6,352.7,139.9z" />
		<path d="M259.6,26.4c-1.2,9.9-1.2,10-9.9,10c-48.3-0.1-92.2,14.2-131.2,42.4c-44.3,32-73.3,74.9-87.1,127.9
		c-6.5,25.1-8.5,50.7-5.8,76.3c6.1,58.5,31,107.9,75.1,147.3c31.1,27.7,67.2,45.5,108,53.1c42.1,7.8,83.3,4.1,123.3-11.6
		c32.7-12.8,61.1-32.1,84.6-58.1c25.2-27.8,42.5-60,52-96.4c6.7-25.8,8.7-51.9,5.9-78.1c-4.9-47-22.8-88.7-53.7-124.7
		c-15.3-17.8-33.1-32.6-53-45c-2.2-1.4-6.6-1.8-5.1-6.6c2-6.4,3.8-7.1,9.7-3.3c50.3,31.7,85.5,75.5,103.4,132.4
		c10.5,33.4,12.8,67.7,8.1,102.5c-6.9,50.6-28.5,94.2-63.5,130.8c-32.7,34.2-72.6,56.5-118.9,67.1c-26.5,6-53.3,7.2-80.1,3.9
		c-46.4-5.7-87.6-23.9-123.4-54c-33.2-28-57-62.6-71.3-103.5C14.6,304.4,11.3,269,15.7,233c6.7-55.1,30.4-102.1,70.1-140.7
		c32.5-31.7,71.4-52.2,116-61.8c17.1-3.7,34.3-4.7,51.7-4.8C255.4,25.7,257.3,26.1,259.6,26.4z" />
		<path d="M274.9,39.8c0.3-20.2,17.8-38.1,37.2-37.8c22.5,0.3,39.3,17.1,38.9,38.9c-0.4,20.7-18.1,37.8-38.8,37.4
		C292.1,77.9,274.6,59.9,274.9,39.8z" />
	</g>
</svg>